<svg width="35" height="41" viewBox="0 0 35 41" fill="none" xmlns="http://www.w3.org/2000/svg">
<g clip-path="url(#clip0_1_3)">
<path fill-rule="evenodd" clip-rule="evenodd" d="M22.1225 34.8314C29.5445 32.8069 35 26.0258 35 17.9723C35 8.32099 27.165 0.49707 17.5 0.49707C7.83502 0.49707 0 8.32099 0 17.9723C0 26.0258 5.45559 32.8069 12.8776 34.8314L17.5 40.1067L22.1225 34.8314Z" fill="#CC0000"/>
<path d="M20.793 21.6953H16.1172L14.9453 21.2148C13.6328 20.8008 12.6289 20.1758 11.9336 19.3398C11.2383 18.5039 10.8906 17.4453 10.8906 16.1641C10.8906 15.0312 11.1406 14.0781 11.6406 13.3047C12.1484 12.5234 12.8672 11.9336 13.7969 11.5352C14.7344 11.1367 15.8438 10.9375 17.125 10.9375H22.9609V28H19.7266V13.4805H17.125C16.1016 13.4805 15.3438 13.7344 14.8516 14.2422C14.3594 14.75 14.1133 15.457 14.1133 16.3633C14.1133 16.9961 14.2227 17.5312 14.4414 17.9688C14.668 18.4062 15 18.7344 15.4375 18.9531C15.8828 19.1719 16.4336 19.2812 17.0898 19.2812H20.7812L20.793 21.6953ZM17.3008 20.3359L13.4219 28H9.94141L13.8438 20.3359H17.3008Z" fill="white"/>
</g>
<defs>
<clipPath id="clip0_1_3">
<rect width="35" height="41" fill="white"/>
</clipPath>
</defs>
</svg>
